<?xml version="1.0" encoding="UTF-8" standalone="no"?>
<!-- This is a Stata 17.0 generated SVG file (http://www.stata.com) -->

<svg version="1.1" width="500px" height="333px" viewBox="0 0 4320 2880" xmlns="http://www.w3.org/2000/svg" xmlns:xlink="http://www.w3.org/1999/xlink">
	<desc>Stata Graph - Graph</desc>
	<rect x="0" y="0" width="4320" height="2880" style="fill:#FFFFFF;stroke:none"/>
	<rect x="0.00" y="0.00" width="4320.00" height="2880.00" style="fill:#FFFFFF"/>
	<rect x="2.88" y="2.88" width="4314.24" height="2874.24" style="fill:none;stroke:#FFFFFF;stroke-width:5.76"/>
	<rect x="515.84" y="100.85" width="3198.96" height="2648.34" style="fill:#FFFFFF"/>
	<rect x="518.71" y="103.73" width="3193.20" height="2642.58" style="fill:none;stroke:#FFFFFF;stroke-width:5.76"/>
	<line x1="515.84" y1="2749.18" x2="3714.80" y2="2749.18" style="stroke:#000000;stroke-width:3.00"/>
	<line x1="515.84" y1="1900.02" x2="3714.80" y2="1900.02" style="stroke:#000000;stroke-width:3.00"/>
	<line x1="515.84" y1="1050.86" x2="3714.80" y2="1050.86" style="stroke:#000000;stroke-width:3.00"/>
	<line x1="515.84" y1="201.56" x2="3714.80" y2="201.56" style="stroke:#000000;stroke-width:3.00"/>
	<rect x="752.90" y="965.94" width="681.21" height="1783.24" style="fill:#00274C"/>
	<rect x="756.49" y="969.54" width="674.01" height="1776.04" style="fill:none;stroke:#00274C;stroke-width:7.20"/>
	<rect x="1434.11" y="286.47" width="681.21" height="2462.71" style="fill:#FFCB05"/>
	<rect x="1437.70" y="290.07" width="674.01" height="2455.51" style="fill:none;stroke:#FFCB05;stroke-width:7.20"/>
	<rect x="2115.32" y="371.39" width="681.21" height="2377.79" style="fill:#A5A508"/>
	<rect x="2118.91" y="374.99" width="674.01" height="2370.59" style="fill:none;stroke:#A5A508;stroke-width:7.20"/>
	<rect x="2796.53" y="881.02" width="681.21" height="1868.16" style="fill:#2F65A7"/>
	<rect x="2800.12" y="884.62" width="674.01" height="1860.96" style="fill:none;stroke:#2F65A7;stroke-width:7.20"/>
	<line x1="515.84" y1="2749.18" x2="515.84" y2="100.85" style="stroke:#000000;stroke-width:5.76"/>
	<line x1="515.84" y1="2749.18" x2="475.88" y2="2749.18" style="stroke:#000000;stroke-width:5.76"/>
	<text x="455.90" y="2784.23" style="font-family:'Helvetica';font-size:100.04px;fill:#000000" text-anchor="end">0</text>
	<line x1="515.84" y1="1900.02" x2="475.88" y2="1900.02" style="stroke:#000000;stroke-width:5.76"/>
	<text x="455.90" y="1935.07" style="font-family:'Helvetica';font-size:100.04px;fill:#000000" text-anchor="end">10</text>
	<line x1="515.84" y1="1050.86" x2="475.88" y2="1050.86" style="stroke:#000000;stroke-width:5.76"/>
	<text x="455.90" y="1085.90" style="font-family:'Helvetica';font-size:100.04px;fill:#000000" text-anchor="end">20</text>
	<line x1="515.84" y1="201.56" x2="475.88" y2="201.56" style="stroke:#000000;stroke-width:5.76"/>
	<text x="455.90" y="236.60" style="font-family:'Helvetica';font-size:100.04px;fill:#000000" text-anchor="end">30</text>
	<text x="232.34" y="1424.95" style="font-family:'Helvetica';font-size:110.03px;fill:#000000" transform="rotate(-90 232.34,1424.95)" text-anchor="middle">percent</text>
	<line x1="515.84" y1="2749.18" x2="3714.80" y2="2749.18" style="stroke:#000000;stroke-width:5.76"/>
	<rect x="3749.36" y="2108.19" width="435.24" height="606.43" style="fill:#FFFFFF"/>
	<rect x="3752.23" y="2111.07" width="429.48" height="600.67" style="fill:none;stroke:#FFFFFF;stroke-width:5.76"/>
	<rect x="3792.56" y="2151.39" width="230.45" height="100.04" style="fill:#00274C"/>
	<rect x="3796.15" y="2154.99" width="223.25" height="92.84" style="fill:none;stroke:#00274C;stroke-width:7.20"/>
	<rect x="3792.56" y="2291.39" width="230.45" height="100.04" style="fill:#FFCB05"/>
	<rect x="3796.15" y="2294.99" width="223.25" height="92.84" style="fill:none;stroke:#FFCB05;stroke-width:7.20"/>
	<rect x="3792.56" y="2431.39" width="230.45" height="100.04" style="fill:#A5A508"/>
	<rect x="3796.15" y="2434.99" width="223.25" height="92.84" style="fill:none;stroke:#A5A508;stroke-width:7.20"/>
	<rect x="3792.56" y="2571.39" width="230.45" height="100.04" style="fill:#2F65A7"/>
	<rect x="3796.15" y="2574.99" width="223.25" height="92.84" style="fill:none;stroke:#2F65A7;stroke-width:7.20"/>
	<text x="4082.94" y="2236.53" style="font-family:'Helvetica';font-size:100.04px;fill:#000000">1</text>
	<text x="4082.94" y="2376.52" style="font-family:'Helvetica';font-size:100.04px;fill:#000000">2</text>
	<text x="4082.94" y="2516.52" style="font-family:'Helvetica';font-size:100.04px;fill:#000000">3</text>
	<text x="4082.94" y="2656.52" style="font-family:'Helvetica';font-size:100.04px;fill:#000000">4</text>
</svg>
